<svg xmlns="http://www.w3.org/2000/svg" fill="none" viewBox="0 0 128 128">
  <rect width="128" height="128" fill="url(#sfg)" rx="32"/>
  <path fill="#fff" d="M87.397 105.657A8 8 0 0 1 81.74 108H64.012c-2.672 0-4.011-3.232-2.121-5.122l40.987-40.987C104.768 60 108 61.34 108 64.012V81.74a8 8 0 0 1-2.343 5.657l-18.26 18.26Zm2.943-82.14c3.905-3.905 10.237-3.905 14.142 0 3.905 3.906 3.905 10.237 0 14.142l-66.803 66.804c-3.905 3.905-10.237 3.905-14.142 0-3.905-3.906-3.905-10.237 0-14.142L90.34 23.516ZM20 46.26a8 8 0 0 1 2.343-5.657l18.26-18.26A8 8 0 0 1 46.26 20h17.728c2.673 0 4.011 3.231 2.121 5.121L25.121 66.11C23.231 68 20 66.662 20 63.99V46.26Z"/>
  <defs>
    <linearGradient id="sfg" x1="0" x2="128" y1="0" y2="128" gradientUnits="userSpaceOnUse">
      <stop offset=".3" stop-color="#E37894"/>
      <stop offset="1" stop-color="#D48744"/>
    </linearGradient>
  </defs>
</svg>