<svg xmlns="http://www.w3.org/2000/svg" fill="none" viewBox="0 0 454 167">
  <path fill="url(#a)" d="M17.6 31.2a31.8 31.8 0 0 0-15.8 28 28 28 0 0 0 3 13.8c1.7 3.9 5 7.3 9.6 9.7 4.2 2.5 10.3 5 17.9 6.6A35.8 35.8 0 0 1 45.9 95c2.7 2 4.1 4.4 4 7.7 0 3.8-1.6 6.6-4.4 8.4-3 2.3-6.7 3.1-12.4 3-10 .2-18.9-3.3-27.2-10.2l-5.6 16c3.7 3.9 8.3 6.8 14.4 8.9 5.7 2 11.8 2.7 18.4 2.8 10.9.3 19.5-2.8 25.8-8.3 6.3-5.6 9.3-13 9-22.6.3-8-2.4-14.2-7-18.6a52.5 52.5 0 0 0-23.4-11.5 69 69 0 0 1-10.8-3c-2.4-1.6-4.2-3-5.6-4.5a9 9 0 0 1-1.3-5.7c0-3.8 1.1-7 4-9.4a17 17 0 0 1 11.5-3c9-.2 17 3.3 24.8 10l5.6-16a44 44 0 0 0-30.5-11.6 35.5 35.5 0 0 0-17.6 3.8Z"/>
  <path fill="url(#b)" d="m139 58-15.8 47-15.4-47.2H89l24.8 68.8-1.5 4.7c-1.5 4.2-4 7.5-6.9 9.8a43.1 43.1 0 0 1-12.4 5.4l4.3 16.2a41 41 0 0 0 19.1-8 53.9 53.9 0 0 0 12.9-20.6l27.4-76H139Z"/>
  <path fill="url(#c)" d="M190 0c-9 0-16.6 7.6-16.6 16.8v133a17 17 0 0 0 16.6 17h247.4a17 17 0 0 0 16.6-17v-133C454 7.6 446.4 0 437.4 0H190Zm205.6 63.2h11v-4.5c0-9 1.7-16.3 5.6-21.4 3.6-5 9-7.5 16-7.5 4.2 0 7.3.8 9.8 2v16.8c-2-.6-4-.9-5.6-.9-2.5 0-4.8.9-6.2 2.5-1.7 2-2.5 5-2.5 9v4h12v16.2h-12v56.4h-17.1V79.4h-11V63.2Zm-44-32.6H369v105.2h-17.4V30.6Zm-76.3 96.3a42 42 0 0 1-8.4-27.5c0-7.3 1-14 3.6-19.7a27.8 27.8 0 0 1 10.1-13.5c4.2-3 9.3-4.7 14.6-4.7a23 23 0 0 1 19.4 9.8 45.8 45.8 0 0 1 7.3 27v3h-38.5a29 29 0 0 0 4.2 14.9c2.5 3 6.5 4.5 11.2 4.5a20 20 0 0 0 9-2c3.1-1.1 6-2.8 8.4-5.3l4.5 14.6c-2.8 2.8-6.1 5-10.3 6.4a31 31 0 0 1-12.1 2.6 28 28 0 0 1-23-10.1Zm-53-7a5.7 5.7 0 0 0 2.5-5.1c0-1.7-.6-3-1.7-4.2-1.1-1.1-3.4-2-6.2-2.8l-9.5-2.5c-5.3-1.7-9.6-4-12-7.3a20.4 20.4 0 0 1-4.3-13.5c0-4.5 1.1-8.4 3.4-11.8 2-3.7 5-6.5 8.7-8.4 3.6-2 8.1-2.8 12.9-2.8 4.2 0 8.1.8 12 2.2 4 1.7 7.6 4 10.7 6.7L234 84.8a41 41 0 0 0-9-6c-3.3-1-6.1-1.9-9-1.9-3 0-5 .8-6.7 2a5.7 5.7 0 0 0-2.5 5 6 6 0 0 0 1.4 4c1.1 1 2.8 2 5.4 2.5l9.5 2.8a24 24 0 0 1 12.9 7.6c2.8 3.6 4 8.1 4 13.7 0 7-2 12.4-6.5 16.3-4.5 4-10.4 6.2-18.3 6.2a36 36 0 0 1-25.8-9l4.6-15a32.3 32.3 0 0 0 21.6 8.4c2.8 0 5.3-.5 6.8-1.7Zm65.6-39.6c-2.2 2.2-3.4 5.6-4 10.4h23c-1-9.6-4.7-14-11.1-14a9.2 9.2 0 0 0-7.9 3.6Z"/>
  <defs>
    <linearGradient id="a" x1="-22.4" x2="450.7" y1="78" y2="89.7" gradientUnits="userSpaceOnUse">
      <stop stop-color="#E37894"/>
      <stop offset="1" stop-color="#D48744"/>
    </linearGradient>
    <linearGradient id="b" x1="-23.1" x2="450" y1="106.7" y2="118.3" gradientUnits="userSpaceOnUse">
      <stop stop-color="#E37894"/>
      <stop offset="1" stop-color="#D48744"/>
    </linearGradient>
    <linearGradient id="c" x1="173.4" x2="454" y1="83.4" y2="83.4" gradientUnits="userSpaceOnUse">
      <stop stop-color="#E37894"/>
      <stop offset="1" stop-color="#D48744"/>
    </linearGradient>
  </defs>
</svg>